<mxfile host="app.diagrams.net" modified="2023-05-28T13:57:28.726Z" agent="Mozilla/5.0 (Windows NT 10.0; Win64; x64) AppleWebKit/537.36 (KHTML, like Gecko) Chrome/113.0.0.0 Safari/537.36" etag="AcPuRje9trPRR2q3p-Yb" version="21.3.2" type="device" pages="4">
  <diagram id="C5RBs43oDa-KdzZeNtuy" name="Page-1">
    <mxGraphModel dx="1436" dy="795" grid="1" gridSize="10" guides="1" tooltips="1" connect="1" arrows="1" fold="1" page="1" pageScale="1" pageWidth="827" pageHeight="1169" math="0" shadow="0">
      <root>
        <mxCell id="WIyWlLk6GJQsqaUBKTNV-0" />
        <mxCell id="WIyWlLk6GJQsqaUBKTNV-1" parent="WIyWlLk6GJQsqaUBKTNV-0" />
        <mxCell id="Y9FPX1TNSr4N_x1SfuTm-100" value="" style="rounded=0;whiteSpace=wrap;html=1;fontSize=10;dashed=1;movable=0;resizable=0;rotatable=0;deletable=0;editable=0;connectable=0;locked=1;" parent="WIyWlLk6GJQsqaUBKTNV-1" vertex="1">
          <mxGeometry x="410" y="290" width="330" height="560" as="geometry" />
        </mxCell>
        <mxCell id="Y9FPX1TNSr4N_x1SfuTm-99" value="" style="rounded=0;whiteSpace=wrap;html=1;fontSize=10;dashed=1;movable=0;resizable=0;rotatable=0;deletable=0;editable=0;connectable=0;locked=1;" parent="WIyWlLk6GJQsqaUBKTNV-1" vertex="1">
          <mxGeometry x="150" y="290" width="240" height="560" as="geometry" />
        </mxCell>
        <mxCell id="23DSPJsl9JzfOiuTMtwS-4" style="edgeStyle=orthogonalEdgeStyle;rounded=0;orthogonalLoop=1;jettySize=auto;html=1;exitX=0.5;exitY=1;exitDx=0;exitDy=0;entryX=0.5;entryY=0;entryDx=0;entryDy=0;" parent="WIyWlLk6GJQsqaUBKTNV-1" source="Y9FPX1TNSr4N_x1SfuTm-0" target="Y9FPX1TNSr4N_x1SfuTm-1" edge="1">
          <mxGeometry relative="1" as="geometry" />
        </mxCell>
        <mxCell id="Y9FPX1TNSr4N_x1SfuTm-0" value="Start" style="ellipse;whiteSpace=wrap;html=1;fontSize=10;" parent="WIyWlLk6GJQsqaUBKTNV-1" vertex="1">
          <mxGeometry x="351.7118644067797" y="50" width="99.66101694915254" height="66.44096" as="geometry" />
        </mxCell>
        <mxCell id="23DSPJsl9JzfOiuTMtwS-3" style="edgeStyle=orthogonalEdgeStyle;rounded=0;orthogonalLoop=1;jettySize=auto;html=1;exitX=0.5;exitY=1;exitDx=0;exitDy=0;entryX=0.5;entryY=0;entryDx=0;entryDy=0;" parent="WIyWlLk6GJQsqaUBKTNV-1" source="Y9FPX1TNSr4N_x1SfuTm-1" target="Y9FPX1TNSr4N_x1SfuTm-2" edge="1">
          <mxGeometry relative="1" as="geometry" />
        </mxCell>
        <mxCell id="Y9FPX1TNSr4N_x1SfuTm-1" value="Dataset" style="shape=parallelogram;perimeter=parallelogramPerimeter;whiteSpace=wrap;html=1;fixedSize=1;fontSize=10;" parent="WIyWlLk6GJQsqaUBKTNV-1" vertex="1">
          <mxGeometry x="351.7118644067797" y="139.66144" width="99.66101694915254" height="49.83072" as="geometry" />
        </mxCell>
        <mxCell id="23DSPJsl9JzfOiuTMtwS-1" style="edgeStyle=orthogonalEdgeStyle;rounded=0;orthogonalLoop=1;jettySize=auto;html=1;exitX=0.5;exitY=1;exitDx=0;exitDy=0;entryX=0.5;entryY=0;entryDx=0;entryDy=0;" parent="WIyWlLk6GJQsqaUBKTNV-1" source="Y9FPX1TNSr4N_x1SfuTm-2" target="Y9FPX1TNSr4N_x1SfuTm-4" edge="1">
          <mxGeometry relative="1" as="geometry">
            <Array as="points">
              <mxPoint x="402" y="320" />
              <mxPoint x="402" y="320" />
            </Array>
          </mxGeometry>
        </mxCell>
        <mxCell id="23DSPJsl9JzfOiuTMtwS-2" style="edgeStyle=orthogonalEdgeStyle;rounded=0;orthogonalLoop=1;jettySize=auto;html=1;exitX=0.5;exitY=1;exitDx=0;exitDy=0;entryX=0.5;entryY=0;entryDx=0;entryDy=0;" parent="WIyWlLk6GJQsqaUBKTNV-1" source="Y9FPX1TNSr4N_x1SfuTm-2" target="Y9FPX1TNSr4N_x1SfuTm-3" edge="1">
          <mxGeometry relative="1" as="geometry">
            <Array as="points">
              <mxPoint x="402" y="360" />
              <mxPoint x="219" y="360" />
            </Array>
          </mxGeometry>
        </mxCell>
        <mxCell id="Y9FPX1TNSr4N_x1SfuTm-2" value="Split train data and test data" style="rounded=0;whiteSpace=wrap;html=1;fontSize=10;" parent="WIyWlLk6GJQsqaUBKTNV-1" vertex="1">
          <mxGeometry x="351.7162711864407" y="210.00263999999999" width="99.66101694915254" height="49.83072" as="geometry" />
        </mxCell>
        <mxCell id="23DSPJsl9JzfOiuTMtwS-23" style="edgeStyle=orthogonalEdgeStyle;rounded=0;orthogonalLoop=1;jettySize=auto;html=1;exitX=1;exitY=0.5;exitDx=0;exitDy=0;entryX=0;entryY=0.5;entryDx=0;entryDy=0;dashed=1;" parent="WIyWlLk6GJQsqaUBKTNV-1" source="Y9FPX1TNSr4N_x1SfuTm-3" target="23DSPJsl9JzfOiuTMtwS-13" edge="1">
          <mxGeometry relative="1" as="geometry" />
        </mxCell>
        <mxCell id="Y9FPX1TNSr4N_x1SfuTm-3" value="Train data" style="shape=parallelogram;perimeter=parallelogramPerimeter;whiteSpace=wrap;html=1;fixedSize=1;fontSize=10;" parent="WIyWlLk6GJQsqaUBKTNV-1" vertex="1">
          <mxGeometry x="169" y="600.008448" width="99.66101694915254" height="49.83072" as="geometry" />
        </mxCell>
        <mxCell id="23DSPJsl9JzfOiuTMtwS-0" style="edgeStyle=orthogonalEdgeStyle;rounded=0;orthogonalLoop=1;jettySize=auto;html=1;exitX=0.5;exitY=1;exitDx=0;exitDy=0;" parent="WIyWlLk6GJQsqaUBKTNV-1" source="Y9FPX1TNSr4N_x1SfuTm-4" target="Y9FPX1TNSr4N_x1SfuTm-18" edge="1">
          <mxGeometry relative="1" as="geometry" />
        </mxCell>
        <mxCell id="Y9FPX1TNSr4N_x1SfuTm-12" value="Perform&lt;br style=&quot;font-size: 10px;&quot;&gt;classification" style="rounded=0;whiteSpace=wrap;html=1;fontSize=10;" parent="WIyWlLk6GJQsqaUBKTNV-1" vertex="1">
          <mxGeometry x="169" y="789.610768" width="99.66101694915254" height="49.83072" as="geometry" />
        </mxCell>
        <mxCell id="Y9FPX1TNSr4N_x1SfuTm-92" style="edgeStyle=orthogonalEdgeStyle;rounded=0;orthogonalLoop=1;jettySize=auto;html=1;exitX=0.5;exitY=1;exitDx=0;exitDy=0;entryX=0.5;entryY=0;entryDx=0;entryDy=0;fontSize=10;" parent="WIyWlLk6GJQsqaUBKTNV-1" source="Y9FPX1TNSr4N_x1SfuTm-3" target="Y9FPX1TNSr4N_x1SfuTm-12" edge="1">
          <mxGeometry relative="1" as="geometry" />
        </mxCell>
        <mxCell id="Y9FPX1TNSr4N_x1SfuTm-104" style="edgeStyle=orthogonalEdgeStyle;rounded=0;orthogonalLoop=1;jettySize=auto;html=1;exitX=0.5;exitY=1;exitDx=0;exitDy=0;entryX=1;entryY=0.5;entryDx=0;entryDy=0;fontSize=12;" parent="WIyWlLk6GJQsqaUBKTNV-1" source="Y9FPX1TNSr4N_x1SfuTm-17" target="Y9FPX1TNSr4N_x1SfuTm-18" edge="1">
          <mxGeometry relative="1" as="geometry" />
        </mxCell>
        <mxCell id="Y9FPX1TNSr4N_x1SfuTm-17" value="Perform&lt;br style=&quot;font-size: 10px;&quot;&gt;classification" style="rounded=0;whiteSpace=wrap;html=1;fontSize=10;" parent="WIyWlLk6GJQsqaUBKTNV-1" vertex="1">
          <mxGeometry x="429.1718644067797" y="789.610768" width="99.66101694915254" height="49.83072" as="geometry" />
        </mxCell>
        <mxCell id="Y9FPX1TNSr4N_x1SfuTm-18" value="Evaluation and comparison" style="rounded=0;whiteSpace=wrap;html=1;fontSize=10;" parent="WIyWlLk6GJQsqaUBKTNV-1" vertex="1">
          <mxGeometry x="350.7118644067797" y="877.0022080000001" width="99.66101694915254" height="49.83072" as="geometry" />
        </mxCell>
        <mxCell id="Y9FPX1TNSr4N_x1SfuTm-33" value="End" style="ellipse;whiteSpace=wrap;html=1;fontSize=10;" parent="WIyWlLk6GJQsqaUBKTNV-1" vertex="1">
          <mxGeometry x="350.7118644067797" y="938.18904" width="99.66101694915254" height="66.44096" as="geometry" />
        </mxCell>
        <mxCell id="Y9FPX1TNSr4N_x1SfuTm-94" value="" style="edgeStyle=orthogonalEdgeStyle;rounded=0;orthogonalLoop=1;jettySize=auto;html=1;fontSize=10;" parent="WIyWlLk6GJQsqaUBKTNV-1" source="Y9FPX1TNSr4N_x1SfuTm-18" target="Y9FPX1TNSr4N_x1SfuTm-33" edge="1">
          <mxGeometry relative="1" as="geometry" />
        </mxCell>
        <mxCell id="Y9FPX1TNSr4N_x1SfuTm-101" value="&lt;font style=&quot;font-size: 12px;&quot;&gt;Weak Supervision&lt;/font&gt;" style="text;html=1;align=center;verticalAlign=middle;resizable=0;points=[];autosize=1;fontSize=10;fillColor=#f5f5f5;fontColor=#333333;strokeColor=#666666;" parent="WIyWlLk6GJQsqaUBKTNV-1" vertex="1">
          <mxGeometry x="515" y="305" width="120" height="30" as="geometry" />
        </mxCell>
        <mxCell id="Y9FPX1TNSr4N_x1SfuTm-102" value="&lt;font style=&quot;font-size: 12px;&quot;&gt;Supervised Learning&lt;/font&gt;" style="text;html=1;align=center;verticalAlign=middle;resizable=0;points=[];autosize=1;strokeColor=#666666;fillColor=#f5f5f5;fontSize=10;fontColor=#333333;" parent="WIyWlLk6GJQsqaUBKTNV-1" vertex="1">
          <mxGeometry x="205.00000000000003" y="305" width="130" height="30" as="geometry" />
        </mxCell>
        <mxCell id="Y9FPX1TNSr4N_x1SfuTm-98" style="edgeStyle=orthogonalEdgeStyle;rounded=0;orthogonalLoop=1;jettySize=auto;html=1;exitX=0.5;exitY=1;exitDx=0;exitDy=0;entryX=0;entryY=0.5;entryDx=0;entryDy=0;fontSize=10;" parent="WIyWlLk6GJQsqaUBKTNV-1" source="Y9FPX1TNSr4N_x1SfuTm-12" target="Y9FPX1TNSr4N_x1SfuTm-18" edge="1">
          <mxGeometry relative="1" as="geometry" />
        </mxCell>
        <mxCell id="m8sqx_k2Ls31wx-G241m-3" style="edgeStyle=orthogonalEdgeStyle;rounded=0;orthogonalLoop=1;jettySize=auto;html=1;exitX=0;exitY=0.5;exitDx=0;exitDy=0;entryX=1;entryY=0.5;entryDx=0;entryDy=0;fontSize=10;" parent="WIyWlLk6GJQsqaUBKTNV-1" source="23DSPJsl9JzfOiuTMtwS-15" target="Y9FPX1TNSr4N_x1SfuTm-17" edge="1">
          <mxGeometry relative="1" as="geometry">
            <mxPoint x="605.1735593220337" y="814.5260479999997" as="sourcePoint" />
          </mxGeometry>
        </mxCell>
        <mxCell id="23DSPJsl9JzfOiuTMtwS-17" style="edgeStyle=orthogonalEdgeStyle;rounded=0;orthogonalLoop=1;jettySize=auto;html=1;exitX=0.5;exitY=1;exitDx=0;exitDy=0;entryX=0.5;entryY=0;entryDx=0;entryDy=0;" parent="WIyWlLk6GJQsqaUBKTNV-1" source="23DSPJsl9JzfOiuTMtwS-10" target="23DSPJsl9JzfOiuTMtwS-11" edge="1">
          <mxGeometry relative="1" as="geometry" />
        </mxCell>
        <mxCell id="23DSPJsl9JzfOiuTMtwS-10" value="Scraping dataset" style="rounded=0;whiteSpace=wrap;html=1;fontSize=10;" parent="WIyWlLk6GJQsqaUBKTNV-1" vertex="1">
          <mxGeometry x="540.0035593220339" y="359.998464" width="99.66101694915254" height="49.83072" as="geometry" />
        </mxCell>
        <mxCell id="23DSPJsl9JzfOiuTMtwS-18" style="edgeStyle=orthogonalEdgeStyle;rounded=0;orthogonalLoop=1;jettySize=auto;html=1;exitX=0.5;exitY=1;exitDx=0;exitDy=0;entryX=0.5;entryY=0;entryDx=0;entryDy=0;" parent="WIyWlLk6GJQsqaUBKTNV-1" source="23DSPJsl9JzfOiuTMtwS-11" target="23DSPJsl9JzfOiuTMtwS-12" edge="1">
          <mxGeometry relative="1" as="geometry" />
        </mxCell>
        <mxCell id="23DSPJsl9JzfOiuTMtwS-11" value="Scraped dataset" style="shape=parallelogram;perimeter=parallelogramPerimeter;whiteSpace=wrap;html=1;fixedSize=1;fontSize=10;" parent="WIyWlLk6GJQsqaUBKTNV-1" vertex="1">
          <mxGeometry x="540.0035593220339" y="436.998448" width="99.66101694915254" height="49.83072" as="geometry" />
        </mxCell>
        <mxCell id="23DSPJsl9JzfOiuTMtwS-19" style="edgeStyle=orthogonalEdgeStyle;rounded=0;orthogonalLoop=1;jettySize=auto;html=1;exitX=0.5;exitY=1;exitDx=0;exitDy=0;entryX=0.5;entryY=0;entryDx=0;entryDy=0;" parent="WIyWlLk6GJQsqaUBKTNV-1" source="23DSPJsl9JzfOiuTMtwS-12" target="23DSPJsl9JzfOiuTMtwS-13" edge="1">
          <mxGeometry relative="1" as="geometry" />
        </mxCell>
        <mxCell id="23DSPJsl9JzfOiuTMtwS-12" value="Label modelling" style="rounded=0;whiteSpace=wrap;html=1;fontSize=10;" parent="WIyWlLk6GJQsqaUBKTNV-1" vertex="1">
          <mxGeometry x="540.0035593220339" y="519.338464" width="99.66101694915254" height="49.83072" as="geometry" />
        </mxCell>
        <mxCell id="23DSPJsl9JzfOiuTMtwS-20" style="edgeStyle=orthogonalEdgeStyle;rounded=0;orthogonalLoop=1;jettySize=auto;html=1;exitX=0.5;exitY=1;exitDx=0;exitDy=0;entryX=0.5;entryY=0;entryDx=0;entryDy=0;" parent="WIyWlLk6GJQsqaUBKTNV-1" source="23DSPJsl9JzfOiuTMtwS-13" target="23DSPJsl9JzfOiuTMtwS-14" edge="1">
          <mxGeometry relative="1" as="geometry" />
        </mxCell>
        <mxCell id="23DSPJsl9JzfOiuTMtwS-13" value="Evaluate weak&lt;br style=&quot;font-size: 10px;&quot;&gt;label" style="rounded=0;whiteSpace=wrap;html=1;fontSize=10;" parent="WIyWlLk6GJQsqaUBKTNV-1" vertex="1">
          <mxGeometry x="540.0035593220339" y="600.004448" width="99.66101694915254" height="49.83072" as="geometry" />
        </mxCell>
        <mxCell id="23DSPJsl9JzfOiuTMtwS-21" value="yes" style="edgeStyle=orthogonalEdgeStyle;rounded=0;orthogonalLoop=1;jettySize=auto;html=1;exitX=0.5;exitY=1;exitDx=0;exitDy=0;entryX=0.5;entryY=0;entryDx=0;entryDy=0;" parent="WIyWlLk6GJQsqaUBKTNV-1" source="23DSPJsl9JzfOiuTMtwS-14" target="23DSPJsl9JzfOiuTMtwS-15" edge="1">
          <mxGeometry x="-0.4947" relative="1" as="geometry">
            <Array as="points">
              <mxPoint x="590" y="770" />
              <mxPoint x="590" y="770" />
            </Array>
            <mxPoint as="offset" />
          </mxGeometry>
        </mxCell>
        <mxCell id="23DSPJsl9JzfOiuTMtwS-14" value="Is it &lt;br style=&quot;font-size: 10px;&quot;&gt;good ?" style="rhombus;whiteSpace=wrap;html=1;fontSize=10;" parent="WIyWlLk6GJQsqaUBKTNV-1" vertex="1">
          <mxGeometry x="552.3399999999999" y="675" width="74.99" height="74.99" as="geometry" />
        </mxCell>
        <mxCell id="23DSPJsl9JzfOiuTMtwS-16" value="" style="edgeStyle=orthogonalEdgeStyle;rounded=0;orthogonalLoop=1;jettySize=auto;html=1;exitX=0;exitY=0.5;exitDx=0;exitDy=0;entryX=1;entryY=0.5;entryDx=0;entryDy=0;fontSize=10;" parent="WIyWlLk6GJQsqaUBKTNV-1" target="23DSPJsl9JzfOiuTMtwS-15" edge="1">
          <mxGeometry relative="1" as="geometry">
            <mxPoint x="605.1735593220337" y="814.5260479999997" as="sourcePoint" />
            <mxPoint x="529" y="815" as="targetPoint" />
          </mxGeometry>
        </mxCell>
        <mxCell id="23DSPJsl9JzfOiuTMtwS-22" value="no" style="edgeStyle=orthogonalEdgeStyle;rounded=0;orthogonalLoop=1;jettySize=auto;html=1;exitX=1;exitY=0.5;exitDx=0;exitDy=0;entryX=1;entryY=0.5;entryDx=0;entryDy=0;" parent="WIyWlLk6GJQsqaUBKTNV-1" source="23DSPJsl9JzfOiuTMtwS-15" target="23DSPJsl9JzfOiuTMtwS-12" edge="1">
          <mxGeometry relative="1" as="geometry">
            <Array as="points">
              <mxPoint x="660" y="814" />
              <mxPoint x="660" y="544" />
            </Array>
          </mxGeometry>
        </mxCell>
        <mxCell id="23DSPJsl9JzfOiuTMtwS-15" value="Weakly labelled&lt;br style=&quot;font-size: 10px;&quot;&gt;train data" style="shape=parallelogram;perimeter=parallelogramPerimeter;whiteSpace=wrap;html=1;fixedSize=1;fontSize=10;" parent="WIyWlLk6GJQsqaUBKTNV-1" vertex="1">
          <mxGeometry x="540.0035593220339" y="789.610688" width="99.66101694915254" height="49.83072" as="geometry" />
        </mxCell>
        <mxCell id="Y9FPX1TNSr4N_x1SfuTm-4" value="Test data" style="shape=parallelogram;perimeter=parallelogramPerimeter;whiteSpace=wrap;html=1;fixedSize=1;fontSize=10;" parent="WIyWlLk6GJQsqaUBKTNV-1" vertex="1">
          <mxGeometry x="351.7118644067797" y="411.998448" width="99.66101694915254" height="49.83072" as="geometry" />
        </mxCell>
      </root>
    </mxGraphModel>
  </diagram>
  <diagram id="AzsoFCz2HTs-fx2tHIro" name="Page-2">
    <mxGraphModel dx="1018" dy="1732" grid="1" gridSize="10" guides="1" tooltips="1" connect="1" arrows="1" fold="1" page="1" pageScale="1" pageWidth="827" pageHeight="1169" math="0" shadow="0">
      <root>
        <mxCell id="0" />
        <mxCell id="1" parent="0" />
        <mxCell id="ObmERIvKfn0owNE5f-0z-11" style="edgeStyle=orthogonalEdgeStyle;rounded=0;orthogonalLoop=1;jettySize=auto;html=1;exitX=0.5;exitY=1;exitDx=0;exitDy=0;entryX=0.5;entryY=0;entryDx=0;entryDy=0;" edge="1" parent="1" source="PON8mNDfF2QGbfQXV9uQ-2" target="PON8mNDfF2QGbfQXV9uQ-4">
          <mxGeometry relative="1" as="geometry" />
        </mxCell>
        <mxCell id="PON8mNDfF2QGbfQXV9uQ-2" value="Removing stop-words" style="rounded=0;whiteSpace=wrap;html=1;" parent="1" vertex="1">
          <mxGeometry x="310" y="626" width="206" height="70" as="geometry" />
        </mxCell>
        <mxCell id="ObmERIvKfn0owNE5f-0z-10" style="edgeStyle=orthogonalEdgeStyle;rounded=0;orthogonalLoop=1;jettySize=auto;html=1;exitX=0.5;exitY=1;exitDx=0;exitDy=0;entryX=0.5;entryY=0;entryDx=0;entryDy=0;" edge="1" parent="1" source="PON8mNDfF2QGbfQXV9uQ-3" target="PON8mNDfF2QGbfQXV9uQ-2">
          <mxGeometry relative="1" as="geometry" />
        </mxCell>
        <mxCell id="PON8mNDfF2QGbfQXV9uQ-3" value="Removing symbols" style="rounded=0;whiteSpace=wrap;html=1;" parent="1" vertex="1">
          <mxGeometry x="310" y="530" width="206" height="70" as="geometry" />
        </mxCell>
        <mxCell id="ObmERIvKfn0owNE5f-0z-12" style="edgeStyle=orthogonalEdgeStyle;rounded=0;orthogonalLoop=1;jettySize=auto;html=1;exitX=0.5;exitY=1;exitDx=0;exitDy=0;entryX=0.5;entryY=0;entryDx=0;entryDy=0;" edge="1" parent="1" source="PON8mNDfF2QGbfQXV9uQ-4" target="UNuEyfYS06PMQIhPl-T1-4">
          <mxGeometry relative="1" as="geometry" />
        </mxCell>
        <mxCell id="PON8mNDfF2QGbfQXV9uQ-4" value="Case-folding" style="rounded=0;whiteSpace=wrap;html=1;" parent="1" vertex="1">
          <mxGeometry x="310" y="730" width="206" height="70" as="geometry" />
        </mxCell>
        <mxCell id="B5nJJXwNI_Q7Rd_DWjZs-21" style="edgeStyle=orthogonalEdgeStyle;rounded=0;orthogonalLoop=1;jettySize=auto;html=1;exitX=0.5;exitY=1;exitDx=0;exitDy=0;entryX=0.5;entryY=0;entryDx=0;entryDy=0;" parent="1" source="PON8mNDfF2QGbfQXV9uQ-5" target="PON8mNDfF2QGbfQXV9uQ-26" edge="1">
          <mxGeometry relative="1" as="geometry" />
        </mxCell>
        <mxCell id="PON8mNDfF2QGbfQXV9uQ-5" value="Clean test dataset" style="shape=parallelogram;perimeter=parallelogramPerimeter;whiteSpace=wrap;html=1;fixedSize=1;" parent="1" vertex="1">
          <mxGeometry x="571.75" y="922" width="206" height="70" as="geometry" />
        </mxCell>
        <mxCell id="ObmERIvKfn0owNE5f-0z-3" style="edgeStyle=orthogonalEdgeStyle;rounded=0;orthogonalLoop=1;jettySize=auto;html=1;exitX=0.5;exitY=1;exitDx=0;exitDy=0;entryX=0.25;entryY=0;entryDx=0;entryDy=0;" edge="1" parent="1" source="PON8mNDfF2QGbfQXV9uQ-12" target="PON8mNDfF2QGbfQXV9uQ-3">
          <mxGeometry relative="1" as="geometry" />
        </mxCell>
        <mxCell id="PON8mNDfF2QGbfQXV9uQ-12" value="test dataset, 30%" style="shape=parallelogram;perimeter=parallelogramPerimeter;whiteSpace=wrap;html=1;fixedSize=1;" parent="1" vertex="1">
          <mxGeometry x="75.25" y="138" width="206" height="70" as="geometry" />
        </mxCell>
        <mxCell id="B5nJJXwNI_Q7Rd_DWjZs-23" style="edgeStyle=orthogonalEdgeStyle;rounded=0;orthogonalLoop=1;jettySize=auto;html=1;exitX=0.5;exitY=1;exitDx=0;exitDy=0;entryX=0.5;entryY=0;entryDx=0;entryDy=0;" parent="1" source="PON8mNDfF2QGbfQXV9uQ-14" target="PON8mNDfF2QGbfQXV9uQ-26" edge="1">
          <mxGeometry relative="1" as="geometry" />
        </mxCell>
        <mxCell id="PON8mNDfF2QGbfQXV9uQ-14" value="Clean train dataset" style="shape=parallelogram;perimeter=parallelogramPerimeter;whiteSpace=wrap;html=1;fixedSize=1;" parent="1" vertex="1">
          <mxGeometry x="48.25" y="922" width="206" height="70" as="geometry" />
        </mxCell>
        <mxCell id="B5nJJXwNI_Q7Rd_DWjZs-3" style="edgeStyle=orthogonalEdgeStyle;rounded=0;orthogonalLoop=1;jettySize=auto;html=1;exitX=0.5;exitY=1;exitDx=0;exitDy=0;entryX=0.5;entryY=0;entryDx=0;entryDy=0;" parent="1" source="PON8mNDfF2QGbfQXV9uQ-15" target="B5nJJXwNI_Q7Rd_DWjZs-2" edge="1">
          <mxGeometry relative="1" as="geometry" />
        </mxCell>
        <mxCell id="PON8mNDfF2QGbfQXV9uQ-15" value="Scraping dataset" style="rounded=0;whiteSpace=wrap;html=1;" parent="1" vertex="1">
          <mxGeometry x="545.25" y="-94.5" width="200" height="75" as="geometry" />
        </mxCell>
        <mxCell id="UNuEyfYS06PMQIhPl-T1-10" style="edgeStyle=orthogonalEdgeStyle;rounded=0;orthogonalLoop=1;jettySize=auto;html=1;exitX=0.5;exitY=1;exitDx=0;exitDy=0;entryX=0.5;entryY=0;entryDx=0;entryDy=0;" parent="1" source="PON8mNDfF2QGbfQXV9uQ-18" target="cepFtEwLrr6RCF4pQ_XJ-3" edge="1">
          <mxGeometry relative="1" as="geometry" />
        </mxCell>
        <mxCell id="ObmERIvKfn0owNE5f-0z-5" style="edgeStyle=orthogonalEdgeStyle;rounded=0;orthogonalLoop=1;jettySize=auto;html=1;exitX=0.25;exitY=1;exitDx=0;exitDy=0;entryX=0.25;entryY=0;entryDx=0;entryDy=0;" edge="1" parent="1" source="PON8mNDfF2QGbfQXV9uQ-18" target="PON8mNDfF2QGbfQXV9uQ-3">
          <mxGeometry relative="1" as="geometry" />
        </mxCell>
        <mxCell id="PON8mNDfF2QGbfQXV9uQ-18" value="train dataset, 70%" style="shape=parallelogram;perimeter=parallelogramPerimeter;whiteSpace=wrap;html=1;fixedSize=1;" parent="1" vertex="1">
          <mxGeometry x="310.75" y="138" width="206" height="70" as="geometry" />
        </mxCell>
        <mxCell id="PON8mNDfF2QGbfQXV9uQ-22" value="" style="edgeStyle=orthogonalEdgeStyle;rounded=0;orthogonalLoop=1;jettySize=auto;html=1;" parent="1" source="PON8mNDfF2QGbfQXV9uQ-20" target="PON8mNDfF2QGbfQXV9uQ-21" edge="1">
          <mxGeometry relative="1" as="geometry" />
        </mxCell>
        <mxCell id="PON8mNDfF2QGbfQXV9uQ-20" value="Dataset" style="shape=parallelogram;perimeter=parallelogramPerimeter;whiteSpace=wrap;html=1;fixedSize=1;" parent="1" vertex="1">
          <mxGeometry x="196" y="-94.5" width="206" height="70" as="geometry" />
        </mxCell>
        <mxCell id="B5nJJXwNI_Q7Rd_DWjZs-5" style="edgeStyle=orthogonalEdgeStyle;rounded=0;orthogonalLoop=1;jettySize=auto;html=1;exitX=0.5;exitY=1;exitDx=0;exitDy=0;entryX=0.5;entryY=0;entryDx=0;entryDy=0;" parent="1" source="PON8mNDfF2QGbfQXV9uQ-21" target="PON8mNDfF2QGbfQXV9uQ-12" edge="1">
          <mxGeometry relative="1" as="geometry" />
        </mxCell>
        <mxCell id="B5nJJXwNI_Q7Rd_DWjZs-6" style="edgeStyle=orthogonalEdgeStyle;rounded=0;orthogonalLoop=1;jettySize=auto;html=1;exitX=0.5;exitY=1;exitDx=0;exitDy=0;entryX=0.5;entryY=0;entryDx=0;entryDy=0;" parent="1" source="PON8mNDfF2QGbfQXV9uQ-21" target="PON8mNDfF2QGbfQXV9uQ-18" edge="1">
          <mxGeometry relative="1" as="geometry" />
        </mxCell>
        <mxCell id="PON8mNDfF2QGbfQXV9uQ-21" value="Split dataset" style="rounded=0;whiteSpace=wrap;html=1;" parent="1" vertex="1">
          <mxGeometry x="204" y="15.5" width="190" height="60" as="geometry" />
        </mxCell>
        <mxCell id="PON8mNDfF2QGbfQXV9uQ-26" value="&lt;font style=&quot;font-size: 14px;&quot;&gt;training/building clasifier&lt;/font&gt;" style="rounded=0;whiteSpace=wrap;html=1;dashed=1;" parent="1" vertex="1">
          <mxGeometry x="46.75" y="1042" width="731" height="60" as="geometry" />
        </mxCell>
        <mxCell id="ObmERIvKfn0owNE5f-0z-9" style="edgeStyle=orthogonalEdgeStyle;rounded=0;orthogonalLoop=1;jettySize=auto;html=1;exitX=0.5;exitY=1;exitDx=0;exitDy=0;entryX=0.5;entryY=0;entryDx=0;entryDy=0;" edge="1" parent="1" source="cepFtEwLrr6RCF4pQ_XJ-2" target="PON8mNDfF2QGbfQXV9uQ-3">
          <mxGeometry relative="1" as="geometry" />
        </mxCell>
        <mxCell id="cepFtEwLrr6RCF4pQ_XJ-2" value="weakly labeled train data" style="shape=parallelogram;perimeter=parallelogramPerimeter;whiteSpace=wrap;html=1;fixedSize=1;" parent="1" vertex="1">
          <mxGeometry x="425" y="420" width="206" height="70" as="geometry" />
        </mxCell>
        <mxCell id="B5nJJXwNI_Q7Rd_DWjZs-11" style="edgeStyle=orthogonalEdgeStyle;rounded=0;orthogonalLoop=1;jettySize=auto;html=1;exitX=0.5;exitY=1;exitDx=0;exitDy=0;entryX=0.5;entryY=0;entryDx=0;entryDy=0;" parent="1" source="cepFtEwLrr6RCF4pQ_XJ-3" target="cepFtEwLrr6RCF4pQ_XJ-2" edge="1">
          <mxGeometry relative="1" as="geometry" />
        </mxCell>
        <mxCell id="cepFtEwLrr6RCF4pQ_XJ-3" value="Label modeling" style="rounded=0;whiteSpace=wrap;html=1;" parent="1" vertex="1">
          <mxGeometry x="435.5" y="290" width="185" height="69.38" as="geometry" />
        </mxCell>
        <mxCell id="UNuEyfYS06PMQIhPl-T1-12" style="edgeStyle=orthogonalEdgeStyle;rounded=0;orthogonalLoop=1;jettySize=auto;html=1;exitX=0.5;exitY=1;exitDx=0;exitDy=0;entryX=0.5;entryY=0;entryDx=0;entryDy=0;" parent="1" source="B5nJJXwNI_Q7Rd_DWjZs-2" target="cepFtEwLrr6RCF4pQ_XJ-3" edge="1">
          <mxGeometry relative="1" as="geometry" />
        </mxCell>
        <mxCell id="B5nJJXwNI_Q7Rd_DWjZs-2" value="scraped dataset" style="shape=parallelogram;perimeter=parallelogramPerimeter;whiteSpace=wrap;html=1;fixedSize=1;" parent="1" vertex="1">
          <mxGeometry x="542.25" y="138" width="206" height="70" as="geometry" />
        </mxCell>
        <mxCell id="B5nJJXwNI_Q7Rd_DWjZs-19" style="edgeStyle=orthogonalEdgeStyle;rounded=0;orthogonalLoop=1;jettySize=auto;html=1;exitX=0.5;exitY=1;exitDx=0;exitDy=0;entryX=0.5;entryY=0;entryDx=0;entryDy=0;" parent="1" source="B5nJJXwNI_Q7Rd_DWjZs-4" target="PON8mNDfF2QGbfQXV9uQ-26" edge="1">
          <mxGeometry relative="1" as="geometry" />
        </mxCell>
        <mxCell id="B5nJJXwNI_Q7Rd_DWjZs-4" value="Clean weakly labeled &lt;br&gt;train dataset" style="shape=parallelogram;perimeter=parallelogramPerimeter;whiteSpace=wrap;html=1;fixedSize=1;" parent="1" vertex="1">
          <mxGeometry x="310" y="922" width="206" height="70" as="geometry" />
        </mxCell>
        <mxCell id="ObmERIvKfn0owNE5f-0z-13" style="edgeStyle=orthogonalEdgeStyle;rounded=0;orthogonalLoop=1;jettySize=auto;html=1;exitX=0.5;exitY=1;exitDx=0;exitDy=0;entryX=0.5;entryY=0;entryDx=0;entryDy=0;" edge="1" parent="1" source="UNuEyfYS06PMQIhPl-T1-4" target="B5nJJXwNI_Q7Rd_DWjZs-4">
          <mxGeometry relative="1" as="geometry" />
        </mxCell>
        <mxCell id="UNuEyfYS06PMQIhPl-T1-4" value="Delete duplicates" style="rounded=0;whiteSpace=wrap;html=1;" parent="1" vertex="1">
          <mxGeometry x="310" y="820" width="206" height="70" as="geometry" />
        </mxCell>
      </root>
    </mxGraphModel>
  </diagram>
  <diagram id="f-6exD0G-5Vwi9Tdc8Cc" name="Page-3">
    <mxGraphModel dx="1221" dy="676" grid="1" gridSize="10" guides="1" tooltips="1" connect="1" arrows="1" fold="1" page="1" pageScale="1" pageWidth="827" pageHeight="1169" math="0" shadow="0">
      <root>
        <mxCell id="0" />
        <mxCell id="1" parent="0" />
        <mxCell id="iV5fMEpSDfQOxVxZxomq-24" value="" style="rounded=0;whiteSpace=wrap;html=1;dashed=1;fontSize=10;" parent="1" vertex="1">
          <mxGeometry x="200" y="220" width="330" height="350" as="geometry" />
        </mxCell>
        <mxCell id="iV5fMEpSDfQOxVxZxomq-15" style="edgeStyle=orthogonalEdgeStyle;rounded=0;orthogonalLoop=1;jettySize=auto;html=1;exitX=1;exitY=0.5;exitDx=0;exitDy=0;entryX=0.5;entryY=1;entryDx=0;entryDy=0;fontSize=10;" parent="1" source="iV5fMEpSDfQOxVxZxomq-1" target="iV5fMEpSDfQOxVxZxomq-7" edge="1">
          <mxGeometry relative="1" as="geometry" />
        </mxCell>
        <mxCell id="iV5fMEpSDfQOxVxZxomq-1" value="Evaluate weak&lt;br style=&quot;font-size: 10px;&quot;&gt;label" style="rounded=0;whiteSpace=wrap;html=1;fontSize=10;" parent="1" vertex="1">
          <mxGeometry x="252.00310542358255" y="483.18714382768405" width="145.10689457641743" height="72.55451993713486" as="geometry" />
        </mxCell>
        <mxCell id="iV5fMEpSDfQOxVxZxomq-2" value="Train/building classifier" style="rounded=0;whiteSpace=wrap;html=1;fontSize=10;dashed=1;" parent="1" vertex="1">
          <mxGeometry x="925" y="311.27" width="85.11" height="190" as="geometry" />
        </mxCell>
        <mxCell id="RB4CkrALA5PNpImVJ5_I-1" style="edgeStyle=orthogonalEdgeStyle;rounded=0;orthogonalLoop=1;jettySize=auto;html=1;exitX=1;exitY=0.5;exitDx=0;exitDy=0;" edge="1" parent="1" source="iV5fMEpSDfQOxVxZxomq-5" target="iV5fMEpSDfQOxVxZxomq-12">
          <mxGeometry relative="1" as="geometry" />
        </mxCell>
        <mxCell id="iV5fMEpSDfQOxVxZxomq-5" value="Scraped dataset" style="shape=parallelogram;perimeter=parallelogramPerimeter;whiteSpace=wrap;html=1;fixedSize=1;fontSize=10;" parent="1" vertex="1">
          <mxGeometry x="40.003105423582554" y="260" width="145.10689457641743" height="72.55451993713486" as="geometry" />
        </mxCell>
        <mxCell id="iV5fMEpSDfQOxVxZxomq-16" value="No" style="edgeStyle=orthogonalEdgeStyle;rounded=0;orthogonalLoop=1;jettySize=auto;html=1;exitX=0.5;exitY=0;exitDx=0;exitDy=0;entryX=1;entryY=0.5;entryDx=0;entryDy=0;fontSize=10;" parent="1" source="iV5fMEpSDfQOxVxZxomq-7" target="iV5fMEpSDfQOxVxZxomq-12" edge="1">
          <mxGeometry x="-0.1656" relative="1" as="geometry">
            <mxPoint as="offset" />
          </mxGeometry>
        </mxCell>
        <mxCell id="iV5fMEpSDfQOxVxZxomq-21" value="Yes" style="edgeStyle=orthogonalEdgeStyle;rounded=0;orthogonalLoop=1;jettySize=auto;html=1;exitX=1;exitY=0.5;exitDx=0;exitDy=0;entryX=0;entryY=0.5;entryDx=0;entryDy=0;fontSize=10;" parent="1" source="iV5fMEpSDfQOxVxZxomq-7" target="iV5fMEpSDfQOxVxZxomq-20" edge="1">
          <mxGeometry relative="1" as="geometry" />
        </mxCell>
        <mxCell id="iV5fMEpSDfQOxVxZxomq-7" value="Is it &lt;br style=&quot;font-size: 10px;&quot;&gt;good ?" style="rhombus;whiteSpace=wrap;html=1;fontSize=10;" parent="1" vertex="1">
          <mxGeometry x="411.9950192360731" y="352.41206043123225" width="109.18578153619846" height="109.18693227964081" as="geometry" />
        </mxCell>
        <mxCell id="iV5fMEpSDfQOxVxZxomq-23" value="" style="edgeStyle=orthogonalEdgeStyle;rounded=0;orthogonalLoop=1;jettySize=auto;html=1;fontSize=10;" parent="1" source="iV5fMEpSDfQOxVxZxomq-8" target="iV5fMEpSDfQOxVxZxomq-2" edge="1">
          <mxGeometry relative="1" as="geometry" />
        </mxCell>
        <mxCell id="iV5fMEpSDfQOxVxZxomq-8" value="Weakly labelled&lt;br style=&quot;font-size: 10px;&quot;&gt;train data" style="shape=parallelogram;perimeter=parallelogramPerimeter;whiteSpace=wrap;html=1;fixedSize=1;fontSize=10;" parent="1" vertex="1">
          <mxGeometry x="746.0031054235826" y="370.73536358127296" width="145.10689457641743" height="72.55451993713486" as="geometry" />
        </mxCell>
        <mxCell id="iV5fMEpSDfQOxVxZxomq-14" style="edgeStyle=orthogonalEdgeStyle;rounded=0;orthogonalLoop=1;jettySize=auto;html=1;exitX=0.5;exitY=1;exitDx=0;exitDy=0;entryX=0.5;entryY=0;entryDx=0;entryDy=0;fontSize=10;" parent="1" source="iV5fMEpSDfQOxVxZxomq-12" target="iV5fMEpSDfQOxVxZxomq-1" edge="1">
          <mxGeometry relative="1" as="geometry" />
        </mxCell>
        <mxCell id="iV5fMEpSDfQOxVxZxomq-12" value="Query and label input &lt;br&gt;using Rubrix" style="rounded=0;whiteSpace=wrap;html=1;fontSize=10;" parent="1" vertex="1">
          <mxGeometry x="252.00310542358255" y="259.9957663950024" width="145.10689457641743" height="72.55451993713486" as="geometry" />
        </mxCell>
        <mxCell id="RB4CkrALA5PNpImVJ5_I-2" style="edgeStyle=orthogonalEdgeStyle;rounded=0;orthogonalLoop=1;jettySize=auto;html=1;exitX=1;exitY=0.5;exitDx=0;exitDy=0;entryX=0;entryY=0.5;entryDx=0;entryDy=0;" edge="1" parent="1" source="iV5fMEpSDfQOxVxZxomq-17" target="iV5fMEpSDfQOxVxZxomq-1">
          <mxGeometry relative="1" as="geometry" />
        </mxCell>
        <mxCell id="iV5fMEpSDfQOxVxZxomq-17" value="Train dataset" style="shape=parallelogram;perimeter=parallelogramPerimeter;whiteSpace=wrap;html=1;fixedSize=1;fontSize=10;" parent="1" vertex="1">
          <mxGeometry x="30.003105423582554" y="483.18536358127295" width="145.10689457641743" height="72.55451993713486" as="geometry" />
        </mxCell>
        <mxCell id="iV5fMEpSDfQOxVxZxomq-22" value="" style="edgeStyle=orthogonalEdgeStyle;rounded=0;orthogonalLoop=1;jettySize=auto;html=1;fontSize=10;" parent="1" source="iV5fMEpSDfQOxVxZxomq-20" target="iV5fMEpSDfQOxVxZxomq-8" edge="1">
          <mxGeometry relative="1" as="geometry" />
        </mxCell>
        <mxCell id="iV5fMEpSDfQOxVxZxomq-20" value="Export label model and apply for unlabeled dataset" style="rounded=0;whiteSpace=wrap;html=1;fontSize=10;" parent="1" vertex="1">
          <mxGeometry x="570.0031054235826" y="370.73576639500243" width="145.10689457641743" height="72.55451993713486" as="geometry" />
        </mxCell>
        <mxCell id="iV5fMEpSDfQOxVxZxomq-26" value="&lt;b&gt;&lt;font style=&quot;font-size: 14px;&quot;&gt;Label Modeling&lt;/font&gt;&lt;/b&gt;" style="text;html=1;strokeColor=none;fillColor=none;align=center;verticalAlign=middle;whiteSpace=wrap;rounded=0;dashed=1;fontSize=10;" parent="1" vertex="1">
          <mxGeometry x="305" y="225" width="120" height="30" as="geometry" />
        </mxCell>
      </root>
    </mxGraphModel>
  </diagram>
  <diagram id="Q1hDv4dXbG2Wr4SSTr5F" name="Page-4">
    <mxGraphModel dx="1221" dy="676" grid="1" gridSize="10" guides="1" tooltips="1" connect="1" arrows="1" fold="1" page="1" pageScale="1" pageWidth="827" pageHeight="1169" math="0" shadow="0">
      <root>
        <mxCell id="0" />
        <mxCell id="1" parent="0" />
        <mxCell id="OLYHX0-Q-0gqpy5C6GO_-7" style="edgeStyle=orthogonalEdgeStyle;rounded=0;orthogonalLoop=1;jettySize=auto;html=1;exitX=1;exitY=0.5;exitDx=0;exitDy=0;entryX=0;entryY=0.25;entryDx=0;entryDy=0;fontSize=12;" parent="1" source="onJ7QFz2H2S8UCyWjZ4X-1" target="OLYHX0-Q-0gqpy5C6GO_-1" edge="1">
          <mxGeometry relative="1" as="geometry" />
        </mxCell>
        <mxCell id="onJ7QFz2H2S8UCyWjZ4X-1" value="Train data" style="shape=parallelogram;perimeter=parallelogramPerimeter;whiteSpace=wrap;html=1;fixedSize=1;fontSize=10;aspect=fixed;" parent="1" vertex="1">
          <mxGeometry x="40" y="179.998448" width="100" height="50" as="geometry" />
        </mxCell>
        <mxCell id="UGzE01OhKjzy6iKJugxw-13" style="edgeStyle=orthogonalEdgeStyle;rounded=0;orthogonalLoop=1;jettySize=auto;html=1;exitX=1;exitY=0.5;exitDx=0;exitDy=0;entryX=0.5;entryY=1;entryDx=0;entryDy=0;fontSize=12;" parent="1" source="onJ7QFz2H2S8UCyWjZ4X-2" target="UGzE01OhKjzy6iKJugxw-1" edge="1">
          <mxGeometry relative="1" as="geometry" />
        </mxCell>
        <mxCell id="onJ7QFz2H2S8UCyWjZ4X-2" value="Test data" style="shape=parallelogram;perimeter=parallelogramPerimeter;whiteSpace=wrap;html=1;fixedSize=1;fontSize=10;aspect=fixed;" parent="1" vertex="1">
          <mxGeometry x="40.001864406779674" y="389.998448" width="100" height="50" as="geometry" />
        </mxCell>
        <mxCell id="OLYHX0-Q-0gqpy5C6GO_-6" style="edgeStyle=orthogonalEdgeStyle;rounded=0;orthogonalLoop=1;jettySize=auto;html=1;exitX=1;exitY=0.5;exitDx=0;exitDy=0;entryX=0;entryY=0.75;entryDx=0;entryDy=0;fontSize=12;" parent="1" source="onJ7QFz2H2S8UCyWjZ4X-3" target="OLYHX0-Q-0gqpy5C6GO_-1" edge="1">
          <mxGeometry relative="1" as="geometry" />
        </mxCell>
        <mxCell id="onJ7QFz2H2S8UCyWjZ4X-3" value="Weakly labeled&lt;br&gt;train data" style="shape=parallelogram;perimeter=parallelogramPerimeter;whiteSpace=wrap;html=1;fixedSize=1;fontSize=10;aspect=fixed;" parent="1" vertex="1">
          <mxGeometry x="40.00355932203388" y="269.998448" width="100" height="50" as="geometry" />
        </mxCell>
        <mxCell id="OLYHX0-Q-0gqpy5C6GO_-4" value="" style="group" parent="1" vertex="1" connectable="0">
          <mxGeometry x="200" y="160" width="120" height="180" as="geometry" />
        </mxCell>
        <mxCell id="OLYHX0-Q-0gqpy5C6GO_-1" value="" style="rounded=0;whiteSpace=wrap;html=1;fontSize=12;" parent="OLYHX0-Q-0gqpy5C6GO_-4" vertex="1">
          <mxGeometry width="120" height="180" as="geometry" />
        </mxCell>
        <mxCell id="MNu8hfrt69vsK5ngNIk9-1" value="&lt;font style=&quot;font-size: 12px;&quot;&gt;SVM&lt;/font&gt;" style="rounded=0;whiteSpace=wrap;html=1;fontSize=14;" parent="OLYHX0-Q-0gqpy5C6GO_-4" vertex="1">
          <mxGeometry x="10" y="116.47058823529412" width="100" height="52.94117647058824" as="geometry" />
        </mxCell>
        <mxCell id="MNu8hfrt69vsK5ngNIk9-2" value="&lt;font style=&quot;font-size: 12px;&quot;&gt;LSTM&lt;/font&gt;" style="rounded=0;whiteSpace=wrap;html=1;fontSize=14;" parent="OLYHX0-Q-0gqpy5C6GO_-4" vertex="1">
          <mxGeometry x="10" y="54.18000000000002" width="100" height="52.94117647058824" as="geometry" />
        </mxCell>
        <mxCell id="OLYHX0-Q-0gqpy5C6GO_-3" value="Learning&lt;br&gt;Algorithm" style="text;html=1;strokeColor=none;fillColor=none;align=center;verticalAlign=middle;whiteSpace=wrap;rounded=0;fontSize=12;" parent="OLYHX0-Q-0gqpy5C6GO_-4" vertex="1">
          <mxGeometry x="30" y="10.588235294117647" width="60" height="31.764705882352942" as="geometry" />
        </mxCell>
        <mxCell id="UGzE01OhKjzy6iKJugxw-10" style="edgeStyle=orthogonalEdgeStyle;rounded=0;orthogonalLoop=1;jettySize=auto;html=1;exitX=1;exitY=0.5;exitDx=0;exitDy=0;entryX=0;entryY=0.5;entryDx=0;entryDy=0;fontSize=12;" parent="1" source="gP6gtn1gtzwEyco2CrXj-1" target="UGzE01OhKjzy6iKJugxw-1" edge="1">
          <mxGeometry relative="1" as="geometry">
            <Array as="points">
              <mxPoint x="520" y="365" />
              <mxPoint x="520" y="235" />
            </Array>
          </mxGeometry>
        </mxCell>
        <mxCell id="gP6gtn1gtzwEyco2CrXj-1" value="SVM&lt;br&gt;weak model&amp;nbsp;" style="shape=parallelogram;perimeter=parallelogramPerimeter;whiteSpace=wrap;html=1;fixedSize=1;fontSize=10;aspect=fixed;" parent="1" vertex="1">
          <mxGeometry x="385.00186440677965" y="339.998448" width="100" height="50" as="geometry" />
        </mxCell>
        <mxCell id="UGzE01OhKjzy6iKJugxw-9" style="edgeStyle=orthogonalEdgeStyle;rounded=0;orthogonalLoop=1;jettySize=auto;html=1;exitX=1;exitY=0.5;exitDx=0;exitDy=0;entryX=0;entryY=0.5;entryDx=0;entryDy=0;fontSize=12;" parent="1" source="gP6gtn1gtzwEyco2CrXj-2" target="UGzE01OhKjzy6iKJugxw-1" edge="1">
          <mxGeometry relative="1" as="geometry">
            <Array as="points">
              <mxPoint x="520" y="285" />
              <mxPoint x="520" y="235" />
            </Array>
          </mxGeometry>
        </mxCell>
        <mxCell id="gP6gtn1gtzwEyco2CrXj-2" value="SVM&lt;br&gt;supervised model" style="shape=parallelogram;perimeter=parallelogramPerimeter;whiteSpace=wrap;html=1;fixedSize=1;fontSize=10;aspect=fixed;" parent="1" vertex="1">
          <mxGeometry x="385.00186440677965" y="259.998448" width="100" height="50" as="geometry" />
        </mxCell>
        <mxCell id="UGzE01OhKjzy6iKJugxw-8" style="edgeStyle=orthogonalEdgeStyle;rounded=0;orthogonalLoop=1;jettySize=auto;html=1;exitX=1;exitY=0.5;exitDx=0;exitDy=0;entryX=0;entryY=0.5;entryDx=0;entryDy=0;fontSize=12;" parent="1" source="gP6gtn1gtzwEyco2CrXj-3" target="UGzE01OhKjzy6iKJugxw-1" edge="1">
          <mxGeometry relative="1" as="geometry">
            <Array as="points">
              <mxPoint x="520" y="205" />
              <mxPoint x="520" y="235" />
            </Array>
          </mxGeometry>
        </mxCell>
        <mxCell id="gP6gtn1gtzwEyco2CrXj-3" value="LSTM&lt;br&gt;weak model" style="shape=parallelogram;perimeter=parallelogramPerimeter;whiteSpace=wrap;html=1;fixedSize=1;fontSize=10;aspect=fixed;" parent="1" vertex="1">
          <mxGeometry x="389.00186440677965" y="179.998448" width="100" height="50" as="geometry" />
        </mxCell>
        <mxCell id="UGzE01OhKjzy6iKJugxw-7" style="edgeStyle=orthogonalEdgeStyle;rounded=0;orthogonalLoop=1;jettySize=auto;html=1;exitX=1;exitY=0.5;exitDx=0;exitDy=0;entryX=0;entryY=0.5;entryDx=0;entryDy=0;fontSize=12;" parent="1" source="gP6gtn1gtzwEyco2CrXj-4" target="UGzE01OhKjzy6iKJugxw-1" edge="1">
          <mxGeometry relative="1" as="geometry">
            <Array as="points">
              <mxPoint x="520" y="125" />
              <mxPoint x="520" y="235" />
            </Array>
          </mxGeometry>
        </mxCell>
        <mxCell id="gP6gtn1gtzwEyco2CrXj-4" value="LSTM &lt;br&gt;supervised model" style="shape=parallelogram;perimeter=parallelogramPerimeter;whiteSpace=wrap;html=1;fixedSize=1;fontSize=10;aspect=fixed;" parent="1" vertex="1">
          <mxGeometry x="389.00186440677965" y="99.998448" width="100" height="50" as="geometry" />
        </mxCell>
        <mxCell id="UGzE01OhKjzy6iKJugxw-11" style="edgeStyle=orthogonalEdgeStyle;rounded=0;orthogonalLoop=1;jettySize=auto;html=1;exitX=1;exitY=0.5;exitDx=0;exitDy=0;entryX=0;entryY=0.5;entryDx=0;entryDy=0;fontSize=12;" parent="1" source="UGzE01OhKjzy6iKJugxw-1" target="UGzE01OhKjzy6iKJugxw-2" edge="1">
          <mxGeometry relative="1" as="geometry" />
        </mxCell>
        <mxCell id="UGzE01OhKjzy6iKJugxw-1" value="Perform evaluation" style="rounded=0;whiteSpace=wrap;html=1;fontSize=10;aspect=fixed;" parent="1" vertex="1">
          <mxGeometry x="559.9974576271186" y="210.00263999999999" width="100" height="50" as="geometry" />
        </mxCell>
        <mxCell id="UGzE01OhKjzy6iKJugxw-2" value="Comparison" style="rounded=0;whiteSpace=wrap;html=1;fontSize=10;aspect=fixed;" parent="1" vertex="1">
          <mxGeometry x="709.9974576271186" y="210.00263999999999" width="100" height="50" as="geometry" />
        </mxCell>
        <mxCell id="UGzE01OhKjzy6iKJugxw-3" style="edgeStyle=orthogonalEdgeStyle;rounded=0;orthogonalLoop=1;jettySize=auto;html=1;exitX=1;exitY=0.5;exitDx=0;exitDy=0;entryX=0;entryY=0.5;entryDx=0;entryDy=0;fontSize=12;" parent="1" source="OLYHX0-Q-0gqpy5C6GO_-1" target="gP6gtn1gtzwEyco2CrXj-4" edge="1">
          <mxGeometry relative="1" as="geometry">
            <Array as="points">
              <mxPoint x="360" y="250" />
              <mxPoint x="360" y="125" />
            </Array>
          </mxGeometry>
        </mxCell>
        <mxCell id="UGzE01OhKjzy6iKJugxw-4" style="edgeStyle=orthogonalEdgeStyle;rounded=0;orthogonalLoop=1;jettySize=auto;html=1;exitX=1;exitY=0.5;exitDx=0;exitDy=0;entryX=0;entryY=0.5;entryDx=0;entryDy=0;fontSize=12;" parent="1" source="OLYHX0-Q-0gqpy5C6GO_-1" target="gP6gtn1gtzwEyco2CrXj-3" edge="1">
          <mxGeometry relative="1" as="geometry">
            <Array as="points">
              <mxPoint x="360" y="250" />
              <mxPoint x="360" y="205" />
            </Array>
          </mxGeometry>
        </mxCell>
        <mxCell id="UGzE01OhKjzy6iKJugxw-5" style="edgeStyle=orthogonalEdgeStyle;rounded=0;orthogonalLoop=1;jettySize=auto;html=1;exitX=1;exitY=0.5;exitDx=0;exitDy=0;entryX=0;entryY=0.5;entryDx=0;entryDy=0;fontSize=12;" parent="1" source="OLYHX0-Q-0gqpy5C6GO_-1" target="gP6gtn1gtzwEyco2CrXj-2" edge="1">
          <mxGeometry relative="1" as="geometry">
            <Array as="points">
              <mxPoint x="360" y="250" />
              <mxPoint x="360" y="285" />
            </Array>
          </mxGeometry>
        </mxCell>
        <mxCell id="UGzE01OhKjzy6iKJugxw-6" style="edgeStyle=orthogonalEdgeStyle;rounded=0;orthogonalLoop=1;jettySize=auto;html=1;exitX=1;exitY=0.5;exitDx=0;exitDy=0;entryX=0;entryY=0.5;entryDx=0;entryDy=0;fontSize=12;" parent="1" source="OLYHX0-Q-0gqpy5C6GO_-1" target="gP6gtn1gtzwEyco2CrXj-1" edge="1">
          <mxGeometry relative="1" as="geometry">
            <Array as="points">
              <mxPoint x="360" y="250" />
              <mxPoint x="360" y="365" />
            </Array>
          </mxGeometry>
        </mxCell>
      </root>
    </mxGraphModel>
  </diagram>
</mxfile>
